<?xml version="1.0" encoding="utf-8"?><svg xmlns="http://www.w3.org/2000/svg" xmlns:xlink="http://www.w3.org/1999/xlink" width="628" height="319" preserveAspectRatio="xMidYMid" viewBox="0 0 628 319" style="z-index:1;margin-right:-2px;display:block;animation-play-state:paused" ><g transform="translate(314,159.5) scale(1,1) translate(-314,-159.5)" style="transform:matrix(1, 0, 0, 1, 0, 0);animation-play-state:paused" ><linearGradient id="lg-0.7761985624367889" x1="0" x2="1" y1="0" y2="0" style="animation-play-state:paused" ><stop stop-color="#7fff61" offset="0" style="animation-play-state:paused" ></stop>

  
<stop stop-color="#cbff8c" offset="1" style="animation-play-state:paused" ></stop></linearGradient>
<path d="M 0 0 L 0 148.6 Q 62.8 66.2693 125.6 49.1986 T 251.2 -58.2371 T 376.8 -200.132 T 502.4 -298.348 T 628 -370.248 L 628 0 Z" fill="url(#lg-0.7761985624367889)" opacity="0.4" style="opacity:0.4;animation-play-state:paused" ></path>
<path d="M 0 0 L 0 117.678 Q 62.8 81.9176 125.6 57.6585 T 251.2 -62.3806 T 376.8 -139.158 T 502.4 -187.002 T 628 -294.611 L 628 0 Z" fill="url(#lg-0.7761985624367889)" opacity="0.4" style="opacity:0.4;animation-play-state:paused" ></path>
<path d="M 0 0 L 0 132.309 Q 62.8 49.046 125.6 29.7686 T 251.2 -23.9882 T 376.8 -133.101 T 502.4 -181.744 T 628 -262.47 L 628 0 Z" fill="url(#lg-0.7761985624367889)" opacity="0.4" style="opacity:0.4;animation-play-state:paused" ></path>
<path d="M 0 0 L 0 137.046 Q 62.8 88.2173 125.6 60.3348 T 251.2 -47.074 T 376.8 -99.6066 T 502.4 -195.779 T 628 -265.686 L 628 0 Z" fill="url(#lg-0.7761985624367889)" opacity="0.4" style="opacity:0.4;animation-play-state:paused" ></path></g></svg>