<?xml version="1.0" encoding="utf-8"?><svg xmlns="http://www.w3.org/2000/svg" xmlns:xlink="http://www.w3.org/1999/xlink" width="1362" height="462" preserveAspectRatio="xMidYMid" viewBox="0 0 1362 462" style="z-index:1;margin-right:-2px;display:block;animation-play-state:paused" ><g transform="translate(681,231) scale(1,1) translate(-681,-231)" style="transform:matrix(1, 0, 0, 1, 0, 0);animation-play-state:paused" ><linearGradient id="lg-0.6850761055279075" x1="0" x2="1" y1="0" y2="0" style="animation-play-state:paused" ><stop stop-color="#d05353" offset="0" style="animation-play-state:paused" ></stop>

  
<stop stop-color="#fc5c5c" offset="1" style="animation-play-state:paused" ></stop></linearGradient>
<path d="M 0 0 L 0 237.289 Q 170.25 169.823 340.5 151.593 T 681 -55.9194 T 1021.5 -126.796 T 1362 -98.0284 L 1362 0 Z" fill="url(#lg-0.6850761055279075)" opacity="0.56" style="opacity:0.56;animation-play-state:paused" ></path>
<path d="M 0 0 L 0 248.448 Q 170.25 77.5756 340.5 41.1644 T 681 -31.9054 T 1021.5 45.5608 T 1362 -189.249 L 1362 0 Z" fill="url(#lg-0.6850761055279075)" opacity="0.56" style="opacity:0.56;animation-play-state:paused" ></path>
<path d="M 0 0 L 0 100.623 Q 170.25 32.434 340.5 11.1934 T 681 45.5189 T 1021.5 57.3676 T 1362 -52.2155 L 1362 0 Z" fill="url(#lg-0.6850761055279075)" opacity="0.56" style="opacity:0.56;animation-play-state:paused" ></path></g></svg>