<?xml version="1.0" encoding="utf-8" ?>
<svg
  xmlns="http://www.w3.org/2000/svg"
  xmlns:xlink="http://www.w3.org/1999/xlink"
  width="671"
  height="462"
  preserveAspectRatio="xMidYMid"
  viewBox="0 0 671 462"
  style="z-index:1;margin-right:-2px;display:block;background-repeat-y:initial;background-repeat-x:initial;background-color:rgba(241, 242, 243, 0);animation-play-state:paused"
><g
    transform="translate(335.5,231) scale(1,1) translate(-335.5,-231)"
    style="transform:matrix(1, 0, 0, 1, 0, 0);animation-play-state:paused"
  ><linearGradient
      id="lg-0.619405028833274"
      x1="0"
      x2="1"
      y1="0"
      y2="0"
      style="animation-play-state:paused"
    ><stop
        stop-color="#7cb842"
        offset="0"
        style="animation-play-state:paused"
      />

  
<stop
        stop-color="#cdff9c"
        offset="1"
        style="animation-play-state:paused"
      /></linearGradient>
<path
      d="M 0 0 L 0 173.682 Q 83.875 86.7423 167.75 49.0823 T 335.5 31.3296 T 503.25 -55.4276 T 671 -22.0345 L 671 0 Z"
      fill="url(#lg-0.619405028833274)"
      opacity="0.30000000000000004"
      style="opacity:0.3;animation-play-state:paused"
    />
<path
      d="M 0 0 L 0 219.327 Q 83.875 55.3082 167.75 38.4726 T 335.5 22.1276 T 503.25 46.4296 T 671 -111.865 L 671 0 Z"
      fill="url(#lg-0.619405028833274)"
      opacity="0.30000000000000004"
      style="opacity:0.3;animation-play-state:paused"
    />
<path
      d="M 0 0 L 0 154.152 Q 83.875 86.0275 167.75 42.8782 T 335.5 41.5908 T 503.25 -65.5025 T 671 -82.9652 L 671 0 Z"
      fill="url(#lg-0.619405028833274)"
      opacity="0.30000000000000004"
      style="opacity:0.3;animation-play-state:paused"
    /></g></svg>
