<?xml version="1.0" encoding="utf-8"?><svg xmlns="http://www.w3.org/2000/svg" xmlns:xlink="http://www.w3.org/1999/xlink" width="1440" height="689" preserveAspectRatio="xMidYMid" viewBox="0 0 1440 689" style="z-index:1;margin-right:-2px;display:block;background-repeat-y:initial;background-repeat-x:initial;background-color:rgb(241, 242, 243);animation-play-state:paused" ><g transform="translate(720,344.5) scale(1,1) translate(-720,-344.5)" style="transform:matrix(1, 0, 0, 1, 0, 0);animation-play-state:paused" ><linearGradient id="lg-0.30436250760040373" x1="0" x2="1" y1="0" y2="0" style="animation-play-state:paused" ><stop stop-color="#94d137" offset="0" style="animation-play-state:paused" ></stop>

  
<stop stop-color="#b3e46e" offset="1" style="animation-play-state:paused" ></stop></linearGradient>
<path d="M 0 0 L 0 423.149 Q 144 255.852 288 226.925 T 576 44.3695 T 864 -146.614 T 1152 -348.214 T 1440 -546.568 L 1440 0 Z" fill="url(#lg-0.30436250760040373)" opacity="0.4" style="opacity:0.4;animation-play-state:paused" ></path>
<path d="M 0 0 L 0 424.677 Q 144 298.669 288 277.406 T 576 35.3376 T 864 -179.725 T 1152 -360.75 T 1440 -428.507 L 1440 0 Z" fill="url(#lg-0.30436250760040373)" opacity="0.4" style="opacity:0.4;animation-play-state:paused" ></path>
<path d="M 0 0 L 0 444.548 Q 144 199.356 288 172.441 T 576 27.5493 T 864 -153.55 T 1152 -301.925 T 1440 -490.418 L 1440 0 Z" fill="url(#lg-0.30436250760040373)" opacity="0.4" style="opacity:0.4;animation-play-state:paused" ></path></g></svg>