<?xml version="1.0" encoding="utf-8"?><svg xmlns="http://www.w3.org/2000/svg" xmlns:xlink="http://www.w3.org/1999/xlink" width="671" height="462" preserveAspectRatio="xMidYMid" viewBox="0 0 671 462" style="z-index:1;margin-right:-2px;display:block;background-repeat-y:initial;background-repeat-x:initial;background-color:rgb(241, 242, 243);animation-play-state:paused" ><g transform="translate(335.5,231) scale(1,1) translate(-335.5,-231)" style="transform:matrix(1, 0, 0, 1, 0, 0);animation-play-state:paused" ><linearGradient id="lg-0.15465219669106078" x1="0" x2="1" y1="0" y2="0" style="animation-play-state:paused" ><stop stop-color="#7cb842" offset="0" style="animation-play-state:paused" ></stop>

  
<stop stop-color="#cdff9c" offset="1" style="animation-play-state:paused" ></stop></linearGradient>
<path d="M 0 0 L 0 164.652 Q 67.1 217.315 134.2 182.558 T 268.4 112.858 T 402.6 24.2389 T 536.8 -160.796 T 671 -98.8895 L 671 0 Z" fill="url(#lg-0.15465219669106078)" opacity="0.30000000000000004" style="opacity:0.3;animation-play-state:paused" ></path>
<path d="M 0 0 L 0 229.556 Q 67.1 223.61 134.2 194.546 T 268.4 119.471 T 402.6 16.9976 T 536.8 -21.7064 T 671 -140.048 L 671 0 Z" fill="url(#lg-0.15465219669106078)" opacity="0.30000000000000004" style="opacity:0.3;animation-play-state:paused" ></path>
<path d="M 0 0 L 0 229.482 Q 67.1 231.63 134.2 192.576 T 268.4 20.2038 T 402.6 -79.5127 T 536.8 -138.414 T 671 -142.086 L 671 0 Z" fill="url(#lg-0.15465219669106078)" opacity="0.30000000000000004" style="opacity:0.3;animation-play-state:paused" ></path></g></svg>