<?xml version="1.0" standalone="no"?>
<svg xmlns:xlink="http://www.w3.org/1999/xlink" id="wave" style="transform:rotate(0deg); transition: 0.3s" viewBox="0 0 1440 490" version="1.1" xmlns="http://www.w3.org/2000/svg"><defs><linearGradient id="sw-gradient-0" x1="0" x2="0" y1="1" y2="0"><stop stop-color="rgba(178.366, 243, 62, 0.12)" offset="0%"/><stop stop-color="rgba(11, 255, 77.295, 0.42)" offset="100%"/></linearGradient></defs><path style="transform:translate(0, 0px); opacity:1" fill="url(#sw-gradient-0)" d="M0,98L26.7,138.8C53.3,180,107,261,160,318.5C213.3,376,267,408,320,375.7C373.3,343,427,245,480,179.7C533.3,114,587,82,640,73.5C693.3,65,747,82,800,73.5C853.3,65,907,33,960,73.5C1013.3,114,1067,229,1120,245C1173.3,261,1227,180,1280,138.8C1333.3,98,1387,98,1440,89.8C1493.3,82,1547,65,1600,89.8C1653.3,114,1707,180,1760,204.2C1813.3,229,1867,212,1920,204.2C1973.3,196,2027,196,2080,171.5C2133.3,147,2187,98,2240,89.8C2293.3,82,2347,114,2400,147C2453.3,180,2507,212,2560,212.3C2613.3,212,2667,180,2720,171.5C2773.3,163,2827,180,2880,228.7C2933.3,278,2987,359,3040,334.8C3093.3,310,3147,180,3200,122.5C3253.3,65,3307,82,3360,138.8C3413.3,196,3467,294,3520,285.8C3573.3,278,3627,163,3680,106.2C3733.3,49,3787,49,3813,49L3840,49L3840,490L3813.3,490C3786.7,490,3733,490,3680,490C3626.7,490,3573,490,3520,490C3466.7,490,3413,490,3360,490C3306.7,490,3253,490,3200,490C3146.7,490,3093,490,3040,490C2986.7,490,2933,490,2880,490C2826.7,490,2773,490,2720,490C2666.7,490,2613,490,2560,490C2506.7,490,2453,490,2400,490C2346.7,490,2293,490,2240,490C2186.7,490,2133,490,2080,490C2026.7,490,1973,490,1920,490C1866.7,490,1813,490,1760,490C1706.7,490,1653,490,1600,490C1546.7,490,1493,490,1440,490C1386.7,490,1333,490,1280,490C1226.7,490,1173,490,1120,490C1066.7,490,1013,490,960,490C906.7,490,853,490,800,490C746.7,490,693,490,640,490C586.7,490,533,490,480,490C426.7,490,373,490,320,490C266.7,490,213,490,160,490C106.7,490,53,490,27,490L0,490Z"/><defs><linearGradient id="sw-gradient-1" x1="0" x2="0" y1="1" y2="0"><stop stop-color="rgba(45.318, 123.373, 63.882, 0.13)" offset="0%"/><stop stop-color="rgba(11, 255, 77.295, 0.2)" offset="100%"/></linearGradient></defs><path style="transform:translate(0, 50px); opacity:0.9" fill="url(#sw-gradient-1)" d="M0,98L26.7,130.7C53.3,163,107,229,160,285.8C213.3,343,267,392,320,359.3C373.3,327,427,212,480,163.3C533.3,114,587,131,640,155.2C693.3,180,747,212,800,261.3C853.3,310,907,376,960,334.8C1013.3,294,1067,147,1120,114.3C1173.3,82,1227,163,1280,171.5C1333.3,180,1387,114,1440,122.5C1493.3,131,1547,212,1600,228.7C1653.3,245,1707,196,1760,187.8C1813.3,180,1867,212,1920,261.3C1973.3,310,2027,376,2080,400.2C2133.3,425,2187,408,2240,359.3C2293.3,310,2347,229,2400,204.2C2453.3,180,2507,212,2560,253.2C2613.3,294,2667,343,2720,310.3C2773.3,278,2827,163,2880,130.7C2933.3,98,2987,147,3040,212.3C3093.3,278,3147,359,3200,367.5C3253.3,376,3307,310,3360,253.2C3413.3,196,3467,147,3520,171.5C3573.3,196,3627,294,3680,310.3C3733.3,327,3787,261,3813,228.7L3840,196L3840,490L3813.3,490C3786.7,490,3733,490,3680,490C3626.7,490,3573,490,3520,490C3466.7,490,3413,490,3360,490C3306.7,490,3253,490,3200,490C3146.7,490,3093,490,3040,490C2986.7,490,2933,490,2880,490C2826.7,490,2773,490,2720,490C2666.7,490,2613,490,2560,490C2506.7,490,2453,490,2400,490C2346.7,490,2293,490,2240,490C2186.7,490,2133,490,2080,490C2026.7,490,1973,490,1920,490C1866.7,490,1813,490,1760,490C1706.7,490,1653,490,1600,490C1546.7,490,1493,490,1440,490C1386.7,490,1333,490,1280,490C1226.7,490,1173,490,1120,490C1066.7,490,1013,490,960,490C906.7,490,853,490,800,490C746.7,490,693,490,640,490C586.7,490,533,490,480,490C426.7,490,373,490,320,490C266.7,490,213,490,160,490C106.7,490,53,490,27,490L0,490Z"/></svg>