<?xml version="1.0" encoding="utf-8"?><svg xmlns="http://www.w3.org/2000/svg" xmlns:xlink="http://www.w3.org/1999/xlink" width="628" height="462" preserveAspectRatio="xMidYMid" viewBox="0 0 628 462" style="z-index:1;margin-right:-2px;display:block;background-repeat-y:initial;background-repeat-x:initial;background-color:rgb(241, 242, 243);animation-play-state:paused" ><g transform="translate(314,231) scale(1,1) translate(-314,-231)" style="transform:matrix(1, 0, 0, 1, 0, 0);animation-play-state:paused" ><linearGradient id="lg-0.7574108093206042" x1="0" x2="1" y1="0" y2="0" style="animation-play-state:paused" ><stop stop-color="#38ab6b" offset="0" style="animation-play-state:paused" ></stop>

  
<stop stop-color="#7cf2b0" offset="1" style="animation-play-state:paused" ></stop></linearGradient>
<path d="M 0 0 L 0 197.504 Q 62.8 76.426 125.6 53.3348 T 251.2 28.5112 T 376.8 -64.5807 T 502.4 -84.6811 T 628 -59.4241 L 628 0 Z" fill="url(#lg-0.7574108093206042)" opacity="0.19" style="opacity:0.19;animation-play-state:paused" ></path>
<path d="M 0 0 L 0 252.036 Q 62.8 146.763 125.6 107.125 T 251.2 23.396 T 376.8 -30.4221 T 502.4 -95.1171 T 628 -2.5527 L 628 0 Z" fill="url(#lg-0.7574108093206042)" opacity="0.19" style="opacity:0.19;animation-play-state:paused" ></path>
<path d="M 0 0 L 0 245.71 Q 62.8 142.531 125.6 121.994 T 251.2 136.614 T 376.8 -61.2848 T 502.4 -70.1222 T 628 -104.51 L 628 0 Z" fill="url(#lg-0.7574108093206042)" opacity="0.19" style="opacity:0.19;animation-play-state:paused" ></path></g></svg>