<?xml version="1.0" encoding="utf-8"?><svg xmlns="http://www.w3.org/2000/svg" xmlns:xlink="http://www.w3.org/1999/xlink" width="628" height="367" preserveAspectRatio="xMidYMid" viewBox="0 0 628 367" style="z-index:1;margin-right:-2px;display:block;animation-play-state:paused" ><g transform="translate(314,183.5) scale(1,1) translate(-314,-183.5)" style="transform:matrix(1, 0, 0, 1, 0, 0);animation-play-state:paused" ><linearGradient id="lg-0.5340312289420315" x1="0" x2="1" y1="0" y2="0" style="animation-play-state:paused" ><stop stop-color="#61dc44" offset="0" style="animation-play-state:paused" ></stop>

  
<stop stop-color="#cbff8c" offset="1" style="animation-play-state:paused" ></stop></linearGradient>
<path d="M 0 0 L 0 149.831 Q 62.8 93.8952 125.6 61.3098 T 251.2 -70.1504 T 376.8 -170.67 T 502.4 -273.115 T 628 -397.447 L 628 0 Z" fill="url(#lg-0.5340312289420315)" opacity="0.4" style="opacity:0.4;animation-play-state:paused" ></path>
<path d="M 0 0 L 0 140.921 Q 62.8 115.557 125.6 83.1217 T 251.2 20.1327 T 376.8 -121.894 T 502.4 -216.407 T 628 -334.557 L 628 0 Z" fill="url(#lg-0.5340312289420315)" opacity="0.4" style="opacity:0.4;animation-play-state:paused" ></path>
<path d="M 0 0 L 0 161.658 Q 62.8 86.4452 125.6 57.3518 T 251.2 -34.9333 T 376.8 -190.162 T 502.4 -307.749 T 628 -377.196 L 628 0 Z" fill="url(#lg-0.5340312289420315)" opacity="0.4" style="opacity:0.4;animation-play-state:paused" ></path>
<path d="M 0 0 L 0 171.187 Q 62.8 75.3062 125.6 53.1789 T 251.2 -43.0359 T 376.8 -130.147 T 502.4 -264.27 T 628 -363.888 L 628 0 Z" fill="url(#lg-0.5340312289420315)" opacity="0.4" style="opacity:0.4;animation-play-state:paused" ></path></g></svg>