<?xml version="1.0" encoding="utf-8"?><svg xmlns="http://www.w3.org/2000/svg" xmlns:xlink="http://www.w3.org/1999/xlink" width="671" height="462" preserveAspectRatio="xMidYMid" viewBox="0 0 671 462" style="z-index:1;margin-right:-2px;display:block;animation-play-state:paused" ><g transform="translate(335.5,231) scale(1,1) translate(-335.5,-231)" style="transform:matrix(1, 0, 0, 1, 0, 0);animation-play-state:paused" ><linearGradient id="lg-0.5824280484365651" x1="0" x2="1" y1="0" y2="0" style="animation-play-state:paused" ><stop stop-color="#7cb842" offset="0" style="animation-play-state:paused" ></stop>

  
<stop stop-color="#cdff9c" offset="1" style="animation-play-state:paused" ></stop></linearGradient>
<path d="M 0 0 L 0 127.417 Q 83.875 153.582 167.75 125.515 T 335.5 107.356 T 503.25 -5.3607 T 671 -42.4398 L 671 0 Z" fill="url(#lg-0.5824280484365651)" opacity="0.56" style="opacity:0.56;animation-play-state:paused" ></path>
<path d="M 0 0 L 0 264.706 Q 83.875 55.6135 167.75 24.6594 T 335.5 -59.18 T 503.25 -144.633 T 671 -120.065 L 671 0 Z" fill="url(#lg-0.5824280484365651)" opacity="0.56" style="opacity:0.56;animation-play-state:paused" ></path>
<path d="M 0 0 L 0 148.173 Q 83.875 105.354 167.75 61.3534 T 335.5 83.1311 T 503.25 -82.4671 T 671 -64.3486 L 671 0 Z" fill="url(#lg-0.5824280484365651)" opacity="0.56" style="opacity:0.56;animation-play-state:paused" ></path></g></svg>